<svg fill="#000000" xmlns="http://www.w3.org/2000/svg" viewBox="0 0 50 50" width="50px" height="50px"><path d="M 29.84375 13.09375 C 29.066406 13.167969 28.402344 13.691406 28.148438 14.429688 C 27.890625 15.171875 28.089844 15.992188 28.65625 16.53125 L 35.125 23 L 10 23 C 9.9375 22.996094 9.875 22.996094 9.8125 23 C 8.707031 23.050781 7.855469 23.988281 7.90625 25.09375 C 7.957031 26.199219 8.894531 27.050781 10 27 L 35.125 27 L 28.625 33.46875 C 27.839844 34.253906 27.839844 35.527344 28.625 36.3125 C 29.410156 37.097656 30.683594 37.097656 31.46875 36.3125 L 41.34375 26.40625 L 42.78125 25 L 41.34375 23.59375 L 31.46875 13.6875 C 31.046875 13.253906 30.449219 13.035156 29.84375 13.09375 Z"/></svg>